<?xml version="1.0" encoding="UTF-8"?>
<svg xmlns="http://www.w3.org/2000/svg" xmlns:xlink="http://www.w3.org/1999/xlink" width="500pt" height="500pt" viewBox="0 0 500 500" version="1.1">
<g id="surface1">
<path style=" stroke:none;fill-rule:nonzero;fill:rgb(0%,0%,0%);fill-opacity:1;" d="M 232.5 157.25 C 220 161.25 210.5 167.5 202.5 176.5 C 191.25 189.25 187.5 199.75 187.5 217.25 C 187.5 228.25 186.5 232.25 183.75 233.5 C 181.5 234.25 177.5 239.75 175 245.5 C 171 254.5 170 262 170 290 C 170 328.25 172.75 337 187.25 346.75 C 195.5 352.25 197.75 352.5 249.75 352.5 C 298.75 352.5 304.5 352 311.75 347.5 C 326.75 338.5 328.75 332.75 329.5 293.5 C 330.25 262 330 256.75 325.25 246.5 C 322.5 240.25 318.5 234.25 316.5 233.5 C 313.5 232.25 312.5 228.25 312.5 217.25 C 312.5 209 311 198.75 309 194 C 304 182.25 290.75 168 279 162 C 268 156.5 242.75 153.75 232.5 157.25 Z M 265.25 167.75 C 285.75 174 302.25 195.25 302.5 215.5 L 302.5 225 L 197.5 225 L 197.5 215.5 C 197.75 196 213 175.75 233 168.25 C 243.75 164.5 253.5 164.25 265.25 167.75 Z M 261 260.25 C 265.25 263.5 267.5 267.75 267.5 272.25 C 267.5 280.25 261.25 290 256 290 C 253.25 290 252.5 293.75 252.5 306.25 C 252.5 315.5 251.5 322.5 250 322.5 C 248.5 322.5 247.5 315.5 247.5 306.25 C 247.5 293.75 246.75 290 244 290 C 238.75 290 232.5 280.25 232.5 272.25 C 232.5 264.75 242.5 255 250 255 C 252.5 255 257.25 257.25 261 260.25 Z M 261 260.25 "/>
</g>
</svg>
