<svg id="svg" version="1.1" xmlns="http://www.w3.org/2000/svg" xmlns:xlink="http://www.w3.org/1999/xlink" width="400" height="497.2375690607735" viewBox="0, 0, 400,497.2375690607735"><g id="svgg"><path id="path0" d="M48.200 30.952 C 25.909 38.245,22.143 59.765,38.286 87.600 C 53.045 113.046,94.915 160.820,129.993 192.236 C 131.198 193.316,136.110 197.890,140.907 202.400 C 152.829 213.608,151.849 212.970,157.401 213.134 C 175.823 213.676,190.000 201.521,190.000 185.182 C 190.000 180.532,189.087 179.122,182.200 173.140 C 179.120 170.464,174.103 166.008,171.052 163.238 C 168.000 160.467,164.490 157.323,163.252 156.251 C 160.845 154.167,153.056 146.889,141.400 135.832 C 129.523 124.565,118.780 113.648,103.970 97.792 C 85.144 77.638,67.288 54.264,57.577 37.065 C 53.299 29.489,53.089 29.352,48.200 30.952 M252.400 229.837 C 249.650 230.354,243.620 231.401,239.000 232.163 C 234.380 232.925,228.080 234.001,225.000 234.554 C 221.920 235.106,216.700 236.025,213.400 236.596 C 206.743 237.746,199.532 239.020,189.600 240.800 C 185.970 241.450,180.390 242.442,177.200 243.004 C 158.701 246.264,148.420 248.299,145.681 249.241 C 144.426 249.673,140.250 250.847,136.400 251.851 C 129.850 253.557,127.668 254.172,117.400 257.201 C 109.501 259.531,103.126 262.160,101.730 263.663 C 99.931 265.602,97.349 280.451,95.795 297.800 C 95.460 301.540,94.784 307.660,94.293 311.400 C 92.949 321.633,93.328 361.981,94.828 368.400 C 95.453 371.072,96.401 371.832,103.200 375.101 C 118.378 382.399,119.743 382.501,116.627 376.098 C 111.075 364.692,114.398 347.239,126.888 322.200 C 133.987 307.971,137.433 305.444,137.373 314.515 C 137.342 319.141,136.480 322.266,132.604 331.800 C 126.826 346.011,125.525 354.385,127.972 361.600 C 132.586 375.201,149.292 386.213,156.050 380.107 C 159.527 376.966,159.776 374.246,157.450 364.854 C 154.582 353.272,155.332 352.278,176.962 339.000 C 181.979 335.920,188.211 332.008,190.810 330.307 C 205.117 320.942,208.419 323.957,225.024 361.539 C 241.892 399.718,273.479 416.861,304.723 404.796 C 327.279 396.085,336.602 369.234,329.997 332.000 C 327.752 319.347,327.290 318.436,304.332 281.400 C 271.432 228.326,269.679 226.584,252.400 229.837 M238.703 258.414 C 243.166 260.973,255.599 279.432,255.600 283.500 C 255.601 287.834,251.658 287.400,243.800 282.202 C 231.402 274.001,221.672 273.189,196.400 278.246 C 185.725 280.382,176.653 284.071,168.280 289.680 C 162.718 293.406,159.139 295.199,157.262 295.200 C 152.219 295.201,150.654 288.284,154.956 285.008 C 157.365 283.173,195.716 270.213,211.200 266.001 C 218.508 264.013,222.383 262.585,228.029 259.801 C 234.257 256.729,235.487 256.569,238.703 258.414 M43.160 298.002 C 37.983 303.178,38.448 305.727,48.003 324.600 C 54.208 336.857,56.646 342.391,60.008 351.858 C 61.970 357.382,62.863 358.895,63.678 358.075 C 64.644 357.103,64.000 336.139,62.608 323.200 C 62.288 320.230,61.834 316.006,61.599 313.814 C 60.775 306.119,59.597 303.883,54.292 299.935 C 48.039 295.282,46.199 294.962,43.160 298.002 M155.600 434.874 C 139.295 436.573,136.989 437.578,140.100 441.632 C 142.693 445.011,142.512 444.959,152.926 445.279 C 175.465 445.971,199.669 449.197,221.477 454.416 C 232.477 457.049,234.484 456.940,231.160 453.889 C 223.013 446.412,198.301 437.218,182.000 435.601 C 179.690 435.371,176.146 435.007,174.123 434.792 C 169.795 434.331,160.416 434.372,155.600 434.874 " stroke="none" fill="#FDE74C" fill-rule="nonzero"></path><path id="path1" d="M53.000 0.253 C 52.560 0.359,51.390 0.714,50.400 1.041 C 49.410 1.367,47.208 1.812,45.506 2.029 C 43.804 2.246,41.571 2.784,40.545 3.224 C 39.518 3.664,37.879 4.203,36.904 4.422 C 25.023 7.084,8.118 22.362,4.398 33.800 C 4.111 34.680,3.528 36.072,3.101 36.894 C 2.674 37.716,2.223 39.516,2.098 40.894 C 1.973 42.272,1.452 44.300,0.939 45.400 C -0.542 48.581,-0.498 67.370,1.000 71.525 C 1.550 73.049,2.002 74.725,2.005 75.248 C 2.036 81.516,12.478 102.602,22.097 115.822 C 23.141 117.256,24.287 119.008,24.645 119.715 C 25.003 120.422,26.316 122.260,27.562 123.800 C 28.809 125.340,30.168 127.140,30.583 127.800 C 31.476 129.221,32.933 131.071,36.213 134.948 C 37.541 136.516,39.059 138.430,39.588 139.200 C 40.716 140.843,41.945 142.314,45.609 146.400 C 47.088 148.050,48.813 150.030,49.442 150.800 C 54.078 156.476,60.800 163.825,71.982 175.447 C 87.348 191.419,92.512 196.667,93.619 197.441 C 94.282 197.904,98.013 201.417,101.912 205.248 C 105.810 209.080,112.060 215.088,115.800 218.600 C 119.540 222.112,122.595 225.079,122.589 225.193 C 122.562 225.675,118.843 227.148,117.000 227.408 C 115.900 227.563,113.970 228.119,112.712 228.645 C 111.454 229.170,110.104 229.605,109.712 229.610 C 109.320 229.616,106.660 230.439,103.800 231.439 C 100.940 232.440,97.366 233.689,95.859 234.215 C 94.351 234.740,92.911 235.334,92.659 235.533 C 92.406 235.733,91.480 236.123,90.600 236.401 C 86.283 237.765,79.882 242.697,77.103 246.800 C 75.472 249.208,73.175 255.663,72.477 259.800 C 72.255 261.120,71.696 263.456,71.236 264.991 C 70.714 266.735,70.398 268.912,70.394 270.791 C 70.387 274.315,70.006 275.237,68.854 274.522 C 59.847 268.942,54.128 267.099,45.800 267.093 C 40.976 267.089,39.006 267.240,37.800 267.705 C 28.832 271.168,24.560 274.325,19.101 281.520 C 16.605 284.808,13.200 290.835,13.200 291.962 C 13.200 292.145,12.660 293.933,12.000 295.935 C 10.272 301.179,10.344 309.257,12.156 313.330 C 12.466 314.028,12.931 315.741,13.188 317.136 C 13.444 318.531,13.967 320.241,14.348 320.936 C 14.729 321.631,15.252 322.920,15.510 323.800 C 15.942 325.273,17.704 328.815,23.865 340.600 C 25.130 343.020,26.848 346.530,27.683 348.400 C 28.518 350.270,29.491 352.340,29.845 353.000 C 30.198 353.660,30.737 355.150,31.042 356.310 C 31.346 357.471,31.850 358.821,32.161 359.310 C 32.473 359.800,33.018 361.357,33.374 362.771 C 33.729 364.185,34.185 365.541,34.387 365.785 C 34.589 366.028,34.938 367.365,35.162 368.755 C 35.386 370.146,35.921 372.030,36.351 372.942 C 36.781 373.854,37.340 376.219,37.594 378.199 C 37.848 380.178,38.309 382.338,38.618 382.999 C 38.926 383.659,39.359 386.136,39.580 388.503 C 39.810 390.980,40.311 393.611,40.761 394.703 C 41.190 395.746,41.661 397.494,41.808 398.588 C 42.430 403.211,45.290 406.417,53.200 411.354 C 59.917 415.548,64.468 418.545,74.000 425.053 C 97.826 441.320,114.248 454.874,120.002 463.019 C 127.084 473.046,128.497 473.568,148.636 473.588 C 158.667 473.598,161.453 473.719,163.036 474.214 C 164.202 474.578,168.496 475.045,173.600 475.364 C 179.464 475.730,182.769 476.112,183.989 476.564 C 184.972 476.929,188.122 477.410,190.989 477.634 C 194.138 477.880,197.004 478.338,198.232 478.790 C 199.350 479.201,201.600 479.656,203.232 479.800 C 204.865 479.944,207.507 480.498,209.104 481.031 C 210.700 481.564,212.650 482.000,213.436 482.000 C 214.222 482.000,216.156 482.439,217.733 482.976 C 219.310 483.513,221.320 484.068,222.200 484.210 C 223.755 484.461,228.347 485.791,232.000 487.050 C 232.990 487.391,234.880 488.002,236.200 488.407 C 238.822 489.213,243.216 490.824,248.200 492.806 C 249.960 493.506,252.088 494.335,252.929 494.648 C 253.771 494.960,255.340 495.663,256.416 496.208 C 259.419 497.730,278.314 497.745,282.390 496.229 C 285.465 495.086,288.085 494.212,291.437 493.212 C 292.778 492.813,294.432 492.197,295.113 491.845 C 296.260 491.252,299.535 489.951,303.400 488.553 C 307.582 487.040,321.879 479.645,330.200 474.690 C 349.518 463.186,367.993 446.942,380.763 430.231 C 381.953 428.674,383.410 426.840,384.002 426.156 C 384.593 425.472,385.656 423.942,386.362 422.756 C 387.069 421.570,388.181 419.880,388.832 419.000 C 389.484 418.120,390.465 416.590,391.012 415.600 C 391.559 414.610,392.748 412.630,393.654 411.200 C 394.560 409.770,395.554 408.060,395.864 407.400 C 396.174 406.740,396.969 405.300,397.632 404.200 C 400.048 400.188,400.058 400.137,399.924 392.056 L 399.800 384.600 397.261 380.200 C 395.864 377.780,394.334 375.230,393.861 374.533 C 393.387 373.836,391.865 371.316,390.477 368.933 C 389.090 366.550,387.795 364.330,387.601 364.000 C 387.407 363.670,385.937 361.150,384.335 358.400 C 382.733 355.650,381.057 352.830,380.611 352.132 C 380.165 351.435,379.260 349.936,378.600 348.800 C 377.940 347.665,376.436 345.175,375.258 343.268 C 374.079 341.360,372.948 339.440,372.743 339.000 C 372.539 338.560,371.751 337.210,370.993 336.000 C 370.235 334.790,369.343 333.260,369.010 332.600 C 368.677 331.940,367.784 330.410,367.025 329.200 C 366.266 327.990,364.435 324.930,362.956 322.400 C 361.477 319.870,359.873 317.260,359.391 316.600 C 358.910 315.940,358.126 314.680,357.650 313.800 C 355.737 310.265,354.248 307.724,352.625 305.225 C 351.687 303.781,350.325 301.520,349.599 300.200 C 348.873 298.880,347.586 296.752,346.739 295.472 C 345.893 294.191,345.200 293.052,345.200 292.940 C 345.200 292.743,343.032 289.280,341.599 287.188 C 341.218 286.631,340.477 285.394,339.953 284.440 C 339.429 283.485,338.640 282.049,338.200 281.248 C 337.760 280.447,336.545 278.509,335.500 276.942 C 334.455 275.375,333.600 273.979,333.600 273.841 C 333.600 273.703,332.816 272.378,331.857 270.895 C 330.899 269.413,328.982 266.400,327.598 264.200 C 326.213 262.000,324.387 259.144,323.540 257.854 C 322.693 256.564,322.000 255.316,322.000 255.080 C 322.000 254.844,321.662 254.280,321.249 253.826 C 320.835 253.372,318.952 250.480,317.064 247.400 C 315.176 244.320,313.175 241.170,312.617 240.400 C 312.059 239.630,311.287 238.418,310.901 237.706 C 310.516 236.994,309.521 235.464,308.691 234.306 C 307.861 233.148,306.511 231.192,305.691 229.959 C 300.376 221.973,298.831 220.018,293.331 214.315 C 287.079 207.831,281.816 204.258,276.970 203.208 C 275.887 202.973,274.183 202.436,273.184 202.015 C 272.185 201.594,270.385 201.119,269.184 200.960 C 263.934 200.264,255.267 196.217,249.342 191.694 C 243.985 187.606,235.735 180.913,232.000 177.628 C 230.350 176.176,227.650 173.912,226.000 172.597 C 224.350 171.282,221.459 168.854,219.576 167.203 C 214.063 162.368,211.499 160.180,209.385 158.505 C 207.513 157.023,203.598 153.545,199.637 149.846 C 198.667 148.941,197.345 147.808,196.699 147.329 C 194.610 145.781,189.785 141.475,181.992 134.206 C 180.338 132.663,177.619 130.140,175.950 128.600 C 162.502 116.193,156.765 110.704,146.629 100.547 C 140.233 94.137,132.900 86.577,130.333 83.747 C 127.766 80.916,123.379 76.080,120.583 73.000 C 117.788 69.920,113.948 65.520,112.050 63.222 C 110.153 60.924,107.520 57.774,106.200 56.222 C 104.880 54.670,102.990 52.320,102.001 51.000 C 101.012 49.680,100.109 48.510,99.995 48.400 C 99.783 48.195,97.027 44.492,93.146 39.200 C 88.985 33.526,83.147 24.341,81.787 21.327 C 81.471 20.627,81.055 19.957,80.862 19.839 C 80.457 19.588,77.840 14.276,77.395 12.800 C 76.047 8.328,72.291 3.783,67.974 1.400 C 65.844 0.224,56.168 -0.517,53.000 0.253 M53.133 30.565 C 53.896 30.960,55.238 32.923,57.577 37.065 C 67.288 54.264,85.144 77.638,103.970 97.792 C 118.780 113.648,129.523 124.565,141.400 135.832 C 153.056 146.889,160.845 154.167,163.252 156.251 C 164.490 157.323,168.000 160.467,171.052 163.238 C 174.103 166.008,179.120 170.464,182.200 173.140 C 189.087 179.122,190.000 180.532,190.000 185.182 C 190.000 201.521,175.823 213.676,157.401 213.134 C 151.849 212.970,152.829 213.608,140.907 202.400 C 136.110 197.890,131.198 193.316,129.993 192.236 C 94.915 160.820,53.045 113.046,38.286 87.600 C 26.716 67.651,25.226 51.148,33.992 40.058 C 38.355 34.539,49.820 28.852,53.133 30.565 M263.680 229.243 C 272.087 231.000,276.989 237.290,304.332 281.400 C 327.290 318.436,327.752 319.347,329.997 332.000 C 336.602 369.234,327.279 396.085,304.723 404.796 C 273.479 416.861,241.892 399.718,225.024 361.539 C 208.419 323.957,205.117 320.942,190.810 330.307 C 188.211 332.008,181.979 335.920,176.962 339.000 C 155.332 352.278,154.582 353.272,157.450 364.854 C 159.776 374.246,159.527 376.966,156.050 380.107 C 149.292 386.213,132.586 375.201,127.972 361.600 C 125.525 354.385,126.826 346.011,132.604 331.800 C 136.480 322.266,137.342 319.141,137.373 314.515 C 137.433 305.444,133.987 307.971,126.888 322.200 C 114.398 347.239,111.075 364.692,116.627 376.098 C 119.743 382.501,118.378 382.399,103.200 375.101 C 96.401 371.832,95.453 371.072,94.828 368.400 C 93.328 361.981,92.949 321.633,94.293 311.400 C 94.784 307.660,95.460 301.540,95.795 297.800 C 97.349 280.451,99.931 265.602,101.730 263.663 C 103.126 262.160,109.501 259.531,117.400 257.201 C 127.668 254.172,129.850 253.557,136.400 251.851 C 140.250 250.847,144.426 249.673,145.681 249.241 C 148.420 248.299,158.701 246.264,177.200 243.004 C 180.390 242.442,185.970 241.450,189.600 240.800 C 199.532 239.020,206.743 237.746,213.400 236.596 C 216.700 236.025,221.920 235.106,225.000 234.554 C 228.080 234.001,234.380 232.925,239.000 232.163 C 243.620 231.401,249.650 230.354,252.400 229.837 C 258.150 228.754,260.700 228.620,263.680 229.243 M228.029 259.801 C 222.383 262.585,218.508 264.013,211.200 266.001 C 195.716 270.213,157.365 283.173,154.956 285.008 C 150.654 288.284,152.219 295.201,157.262 295.200 C 159.139 295.199,162.718 293.406,168.280 289.680 C 176.653 284.071,185.725 280.382,196.400 278.246 C 221.672 273.189,231.402 274.001,243.800 282.202 C 250.342 286.530,253.038 287.362,254.800 285.600 C 256.650 283.750,255.388 280.458,249.325 271.318 C 239.264 256.151,237.434 255.162,228.029 259.801 M49.400 296.751 C 57.179 300.319,60.678 305.213,61.599 313.814 C 61.834 316.006,62.288 320.230,62.608 323.200 C 64.000 336.139,64.644 357.103,63.678 358.075 C 62.863 358.895,61.970 357.382,60.008 351.858 C 56.646 342.391,54.208 336.857,48.003 324.600 C 38.448 305.727,37.983 303.178,43.160 298.002 C 45.434 295.728,46.641 295.486,49.400 296.751 M174.123 434.792 C 176.146 435.007,179.690 435.371,182.000 435.601 C 198.301 437.218,223.013 446.412,231.160 453.889 C 234.484 456.940,232.477 457.049,221.477 454.416 C 199.669 449.197,175.465 445.971,152.926 445.279 C 142.512 444.959,142.693 445.011,140.100 441.632 C 136.989 437.578,139.295 436.573,155.600 434.874 C 160.416 434.372,169.795 434.331,174.123 434.792 " stroke="none" fill="#FF2A6D" fill-rule="nonzero"></path></g></svg>