<svg id="e8k1u01yyd5e1" xmlns="http://www.w3.org/2000/svg" xmlns:xlink="http://www.w3.org/1999/xlink" viewBox="0 0 600 745.850000" shape-rendering="geometricPrecision" text-rendering="geometricPrecision"><style><![CDATA[#e8k1u01yyd5e3_tr {animation: e8k1u01yyd5e3_tr__tr 4000ms linear infinite normal forwards}@keyframes e8k1u01yyd5e3_tr__tr { 0% {transform: translate(180.225319px,243.212591px) rotate(0deg)} 2.500000% {transform: translate(180.225319px,243.212591px) rotate(5deg)} 5% {transform: translate(180.225319px,243.212591px) rotate(10deg)} 7.500000% {transform: translate(180.225319px,243.212591px) rotate(15deg)} 10% {transform: translate(180.225319px,243.212591px) rotate(20deg)} 12.500000% {transform: translate(180.225319px,243.212591px) rotate(25deg)} 15% {transform: translate(180.225319px,243.212591px) rotate(20deg)} 17.500000% {transform: translate(180.225319px,243.212591px) rotate(15deg)} 20% {transform: translate(180.225319px,243.212591px) rotate(10deg)} 22.500000% {transform: translate(180.225319px,243.212591px) rotate(5deg)} 25% {transform: translate(180.225319px,243.212591px) rotate(0deg)} 27.500000% {transform: translate(180.225319px,243.212591px) rotate(-5deg)} 30% {transform: translate(180.225319px,243.212591px) rotate(-10deg)} 32.500000% {transform: translate(180.225319px,243.212591px) rotate(-15deg)} 35% {transform: translate(180.225319px,243.212591px) rotate(-20deg)} 37.500000% {transform: translate(180.225319px,243.212591px) rotate(-25deg)} 40% {transform: translate(180.225319px,243.212591px) rotate(-30deg)} 42.500000% {transform: translate(180.225319px,243.212591px) rotate(-35deg)} 45% {transform: translate(180.225319px,243.212591px) rotate(-40deg)} 47.500000% {transform: translate(180.225319px,243.212591px) rotate(-45deg)} 50% {transform: translate(180.225319px,243.212591px) rotate(-50deg)} 52.500000% {transform: translate(180.225319px,243.212591px) rotate(-45deg)} 55% {transform: translate(180.225319px,243.212591px) rotate(-40deg)} 57.500000% {transform: translate(180.225319px,243.212591px) rotate(-35deg)} 60% {transform: translate(180.225319px,243.212591px) rotate(-30deg)} 62.500000% {transform: translate(180.225319px,243.212591px) rotate(-25deg)} 65% {transform: translate(180.225319px,243.212591px) rotate(-20deg)} 67.500000% {transform: translate(180.225319px,243.212591px) rotate(-15deg)} 70% {transform: translate(180.225319px,243.212591px) rotate(-10deg)} 72.500000% {transform: translate(180.225319px,243.212591px) rotate(-5deg)} 75% {transform: translate(180.225319px,243.212591px) rotate(0deg)} 100% {transform: translate(180.225319px,243.212591px) rotate(0deg)} }#e8k1u01yyd5e4_tr {animation: e8k1u01yyd5e4_tr__tr 4000ms linear infinite normal forwards}@keyframes e8k1u01yyd5e4_tr__tr { 0% {transform: translate(199.910668px,248.647856px) rotate(0deg)} 2.500000% {transform: translate(199.910668px,248.647856px) rotate(5deg)} 5% {transform: translate(199.910668px,248.647856px) rotate(10deg)} 7.500000% {transform: translate(199.910668px,248.647856px) rotate(15deg)} 10% {transform: translate(199.910668px,248.647856px) rotate(20deg)} 12.500000% {transform: translate(199.910668px,248.647856px) rotate(25deg)} 15% {transform: translate(199.910668px,248.647856px) rotate(20deg)} 17.500000% {transform: translate(199.910668px,248.647856px) rotate(15deg)} 20% {transform: translate(199.910668px,248.647856px) rotate(10deg)} 22.500000% {transform: translate(199.910668px,248.647856px) rotate(5deg)} 25% {transform: translate(199.910668px,248.647856px) rotate(0deg)} 27.500000% {transform: translate(199.910668px,248.647856px) rotate(-5deg)} 30% {transform: translate(199.910668px,248.647856px) rotate(-10deg)} 32.500000% {transform: translate(199.910668px,248.647856px) rotate(-15deg)} 35% {transform: translate(199.910668px,248.647856px) rotate(-20deg)} 37.500000% {transform: translate(199.910668px,248.647856px) rotate(-25deg)} 40% {transform: translate(199.910668px,248.647856px) rotate(-30deg)} 42.500000% {transform: translate(199.910668px,248.647856px) rotate(-35deg)} 45% {transform: translate(199.910668px,248.647856px) rotate(-40deg)} 47.500000% {transform: translate(199.910668px,248.647856px) rotate(-45deg)} 50% {transform: translate(199.910668px,248.647856px) rotate(-50deg)} 52.500000% {transform: translate(199.910668px,248.647856px) rotate(-45deg)} 55% {transform: translate(199.910668px,248.647856px) rotate(-40deg)} 57.500000% {transform: translate(199.910668px,248.647856px) rotate(-35deg)} 60% {transform: translate(199.910668px,248.647856px) rotate(-30deg)} 62.500000% {transform: translate(199.910668px,248.647856px) rotate(-25deg)} 65% {transform: translate(199.910668px,248.647856px) rotate(-20deg)} 67.500000% {transform: translate(199.910668px,248.647856px) rotate(-15deg)} 70% {transform: translate(199.910668px,248.647856px) rotate(-10deg)} 72.500000% {transform: translate(199.910668px,248.647856px) rotate(-5deg)} 75% {transform: translate(199.910668px,248.647856px) rotate(0deg)} 100% {transform: translate(199.910668px,248.647856px) rotate(0deg)} }]]></style><g id="e8k1u01yyd5e2" transform="matrix(0.99619469809175 0.08715574274766 -0.08715574274766 0.99619469809175 122.52114139076161 107.79996180184258)"><g id="e8k1u01yyd5e3_tr" transform="translate(180.225319,243.212591) rotate(0)"><path id="e8k1u01yyd5e3" d="M48.200000,30.952000C25.909000,38.245000,22.143000,59.765000,38.286000,87.600000C53.045000,113.046000,94.915000,160.820000,129.993000,192.236000C131.198000,193.316000,136.110000,197.890000,140.907000,202.400000C152.829000,213.608000,151.849000,212.970000,157.401000,213.134000C175.823000,213.676000,190,201.521000,190,185.182000C190,180.532000,189.087000,179.122000,182.200000,173.140000C179.120000,170.464000,174.103000,166.008000,171.052000,163.238000C168,160.467000,164.490000,157.323000,163.252000,156.251000C160.845000,154.167000,153.056000,146.889000,141.400000,135.832000C129.523000,124.565000,118.780000,113.648000,103.970000,97.792000C85.144000,77.638000,67.288000,54.264000,57.577000,37.065000C53.299000,29.489000,53.089000,29.352000,48.200000,30.952000M252.400000,229.837000C249.650000,230.354000,243.620000,231.401000,239,232.163000C234.380000,232.925000,228.080000,234.001000,225,234.554000C221.920000,235.106000,216.700000,236.025000,213.400000,236.596000C206.743000,237.746000,199.532000,239.020000,189.600000,240.800000C185.970000,241.450000,180.390000,242.442000,177.200000,243.004000C158.701000,246.264000,148.420000,248.299000,145.681000,249.241000C144.426000,249.673000,140.250000,250.847000,136.400000,251.851000C129.850000,253.557000,127.668000,254.172000,117.400000,257.201000C109.501000,259.531000,103.126000,262.160000,101.730000,263.663000C99.931000,265.602000,97.349000,280.451000,95.795000,297.800000C95.460000,301.540000,94.784000,307.660000,94.293000,311.400000C92.949000,321.633000,93.328000,361.981000,94.828000,368.400000C95.453000,371.072000,96.401000,371.832000,103.200000,375.101000C118.378000,382.399000,119.743000,382.501000,116.627000,376.098000C111.075000,364.692000,114.398000,347.239000,126.888000,322.200000C133.987000,307.971000,137.433000,305.444000,137.373000,314.515000C137.342000,319.141000,136.480000,322.266000,132.604000,331.800000C126.826000,346.011000,125.525000,354.385000,127.972000,361.600000C132.586000,375.201000,149.292000,386.213000,156.050000,380.107000C159.527000,376.966000,159.776000,374.246000,157.450000,364.854000C154.582000,353.272000,155.332000,352.278000,176.962000,339C181.979000,335.920000,188.211000,332.008000,190.810000,330.307000C205.117000,320.942000,208.419000,323.957000,225.024000,361.539000C241.892000,399.718000,273.479000,416.861000,304.723000,404.796000C327.279000,396.085000,336.602000,369.234000,329.997000,332C327.752000,319.347000,327.290000,318.436000,304.332000,281.400000C271.432000,228.326000,269.679000,226.584000,252.400000,229.837000M238.703000,258.414000C243.166000,260.973000,255.599000,279.432000,255.600000,283.500000C255.601000,287.834000,251.658000,287.400000,243.800000,282.202000C231.402000,274.001000,221.672000,273.189000,196.400000,278.246000C185.725000,280.382000,176.653000,284.071000,168.280000,289.680000C162.718000,293.406000,159.139000,295.199000,157.262000,295.200000C152.219000,295.201000,150.654000,288.284000,154.956000,285.008000C157.365000,283.173000,195.716000,270.213000,211.200000,266.001000C218.508000,264.013000,222.383000,262.585000,228.029000,259.801000C234.257000,256.729000,235.487000,256.569000,238.703000,258.414000M43.160000,298.002000C37.983000,303.178000,38.448000,305.727000,48.003000,324.600000C54.208000,336.857000,56.646000,342.391000,60.008000,351.858000C61.970000,357.382000,62.863000,358.895000,63.678000,358.075000C64.644000,357.103000,64,336.139000,62.608000,323.200000C62.288000,320.230000,61.834000,316.006000,61.599000,313.814000C60.775000,306.119000,59.597000,303.883000,54.292000,299.935000C48.039000,295.282000,46.199000,294.962000,43.160000,298.002000M155.600000,434.874000C139.295000,436.573000,136.989000,437.578000,140.100000,441.632000C142.693000,445.011000,142.512000,444.959000,152.926000,445.279000C175.465000,445.971000,199.669000,449.197000,221.477000,454.416000C232.477000,457.049000,234.484000,456.940000,231.160000,453.889000C223.013000,446.412000,198.301000,437.218000,182,435.601000C179.690000,435.371000,176.146000,435.007000,174.123000,434.792000C169.795000,434.331000,160.416000,434.372000,155.600000,434.874000" transform="translate(-180.225319,-243.212591)" fill="rgb(253,231,76)" stroke="none" stroke-width="1"/></g><g id="e8k1u01yyd5e4_tr" transform="translate(199.910668,248.647856) rotate(0)"><path id="e8k1u01yyd5e4" d="M53,0.253000C52.560000,0.359000,51.390000,0.714000,50.400000,1.041000C49.410000,1.367000,47.208000,1.812000,45.506000,2.029000C43.804000,2.246000,41.571000,2.784000,40.545000,3.224000C39.518000,3.664000,37.879000,4.203000,36.904000,4.422000C25.023000,7.084000,8.118000,22.362000,4.398000,33.800000C4.111000,34.680000,3.528000,36.072000,3.101000,36.894000C2.674000,37.716000,2.223000,39.516000,2.098000,40.894000C1.973000,42.272000,1.452000,44.300000,0.939000,45.400000C-0.542000,48.581000,-0.498000,67.370000,1,71.525000C1.550000,73.049000,2.002000,74.725000,2.005000,75.248000C2.036000,81.516000,12.478000,102.602000,22.097000,115.822000C23.141000,117.256000,24.287000,119.008000,24.645000,119.715000C25.003000,120.422000,26.316000,122.260000,27.562000,123.800000C28.809000,125.340000,30.168000,127.140000,30.583000,127.800000C31.476000,129.221000,32.933000,131.071000,36.213000,134.948000C37.541000,136.516000,39.059000,138.430000,39.588000,139.200000C40.716000,140.843000,41.945000,142.314000,45.609000,146.400000C47.088000,148.050000,48.813000,150.030000,49.442000,150.800000C54.078000,156.476000,60.800000,163.825000,71.982000,175.447000C87.348000,191.419000,92.512000,196.667000,93.619000,197.441000C94.282000,197.904000,98.013000,201.417000,101.912000,205.248000C105.810000,209.080000,112.060000,215.088000,115.800000,218.600000C119.540000,222.112000,122.595000,225.079000,122.589000,225.193000C122.562000,225.675000,118.843000,227.148000,117,227.408000C115.900000,227.563000,113.970000,228.119000,112.712000,228.645000C111.454000,229.170000,110.104000,229.605000,109.712000,229.610000C109.320000,229.616000,106.660000,230.439000,103.800000,231.439000C100.940000,232.440000,97.366000,233.689000,95.859000,234.215000C94.351000,234.740000,92.911000,235.334000,92.659000,235.533000C92.406000,235.733000,91.480000,236.123000,90.600000,236.401000C86.283000,237.765000,79.882000,242.697000,77.103000,246.800000C75.472000,249.208000,73.175000,255.663000,72.477000,259.800000C72.255000,261.120000,71.696000,263.456000,71.236000,264.991000C70.714000,266.735000,70.398000,268.912000,70.394000,270.791000C70.387000,274.315000,70.006000,275.237000,68.854000,274.522000C59.847000,268.942000,54.128000,267.099000,45.800000,267.093000C40.976000,267.089000,39.006000,267.240000,37.800000,267.705000C28.832000,271.168000,24.560000,274.325000,19.101000,281.520000C16.605000,284.808000,13.200000,290.835000,13.200000,291.962000C13.200000,292.145000,12.660000,293.933000,12,295.935000C10.272000,301.179000,10.344000,309.257000,12.156000,313.330000C12.466000,314.028000,12.931000,315.741000,13.188000,317.136000C13.444000,318.531000,13.967000,320.241000,14.348000,320.936000C14.729000,321.631000,15.252000,322.920000,15.510000,323.800000C15.942000,325.273000,17.704000,328.815000,23.865000,340.600000C25.130000,343.020000,26.848000,346.530000,27.683000,348.400000C28.518000,350.270000,29.491000,352.340000,29.845000,353C30.198000,353.660000,30.737000,355.150000,31.042000,356.310000C31.346000,357.471000,31.850000,358.821000,32.161000,359.310000C32.473000,359.800000,33.018000,361.357000,33.374000,362.771000C33.729000,364.185000,34.185000,365.541000,34.387000,365.785000C34.589000,366.028000,34.938000,367.365000,35.162000,368.755000C35.386000,370.146000,35.921000,372.030000,36.351000,372.942000C36.781000,373.854000,37.340000,376.219000,37.594000,378.199000C37.848000,380.178000,38.309000,382.338000,38.618000,382.999000C38.926000,383.659000,39.359000,386.136000,39.580000,388.503000C39.810000,390.980000,40.311000,393.611000,40.761000,394.703000C41.190000,395.746000,41.661000,397.494000,41.808000,398.588000C42.430000,403.211000,45.290000,406.417000,53.200000,411.354000C59.917000,415.548000,64.468000,418.545000,74,425.053000C97.826000,441.320000,114.248000,454.874000,120.002000,463.019000C127.084000,473.046000,128.497000,473.568000,148.636000,473.588000C158.667000,473.598000,161.453000,473.719000,163.036000,474.214000C164.202000,474.578000,168.496000,475.045000,173.600000,475.364000C179.464000,475.730000,182.769000,476.112000,183.989000,476.564000C184.972000,476.929000,188.122000,477.410000,190.989000,477.634000C194.138000,477.880000,197.004000,478.338000,198.232000,478.790000C199.350000,479.201000,201.600000,479.656000,203.232000,479.800000C204.865000,479.944000,207.507000,480.498000,209.104000,481.031000C210.700000,481.564000,212.650000,482,213.436000,482C214.222000,482,216.156000,482.439000,217.733000,482.976000C219.310000,483.513000,221.320000,484.068000,222.200000,484.210000C223.755000,484.461000,228.347000,485.791000,232,487.050000C232.990000,487.391000,234.880000,488.002000,236.200000,488.407000C238.822000,489.213000,243.216000,490.824000,248.200000,492.806000C249.960000,493.506000,252.088000,494.335000,252.929000,494.648000C253.771000,494.960000,255.340000,495.663000,256.416000,496.208000C259.419000,497.730000,278.314000,497.745000,282.390000,496.229000C285.465000,495.086000,288.085000,494.212000,291.437000,493.212000C292.778000,492.813000,294.432000,492.197000,295.113000,491.845000C296.260000,491.252000,299.535000,489.951000,303.400000,488.553000C307.582000,487.040000,321.879000,479.645000,330.200000,474.690000C349.518000,463.186000,367.993000,446.942000,380.763000,430.231000C381.953000,428.674000,383.410000,426.840000,384.002000,426.156000C384.593000,425.472000,385.656000,423.942000,386.362000,422.756000C387.069000,421.570000,388.181000,419.880000,388.832000,419C389.484000,418.120000,390.465000,416.590000,391.012000,415.600000C391.559000,414.610000,392.748000,412.630000,393.654000,411.200000C394.560000,409.770000,395.554000,408.060000,395.864000,407.400000C396.174000,406.740000,396.969000,405.300000,397.632000,404.200000C400.048000,400.188000,400.058000,400.137000,399.924000,392.056000L399.800000,384.600000L397.261000,380.200000C395.864000,377.780000,394.334000,375.230000,393.861000,374.533000C393.387000,373.836000,391.865000,371.316000,390.477000,368.933000C389.090000,366.550000,387.795000,364.330000,387.601000,364C387.407000,363.670000,385.937000,361.150000,384.335000,358.400000C382.733000,355.650000,381.057000,352.830000,380.611000,352.132000C380.165000,351.435000,379.260000,349.936000,378.600000,348.800000C377.940000,347.665000,376.436000,345.175000,375.258000,343.268000C374.079000,341.360000,372.948000,339.440000,372.743000,339C372.539000,338.560000,371.751000,337.210000,370.993000,336C370.235000,334.790000,369.343000,333.260000,369.010000,332.600000C368.677000,331.940000,367.784000,330.410000,367.025000,329.200000C366.266000,327.990000,364.435000,324.930000,362.956000,322.400000C361.477000,319.870000,359.873000,317.260000,359.391000,316.600000C358.910000,315.940000,358.126000,314.680000,357.650000,313.800000C355.737000,310.265000,354.248000,307.724000,352.625000,305.225000C351.687000,303.781000,350.325000,301.520000,349.599000,300.200000C348.873000,298.880000,347.586000,296.752000,346.739000,295.472000C345.893000,294.191000,345.200000,293.052000,345.200000,292.940000C345.200000,292.743000,343.032000,289.280000,341.599000,287.188000C341.218000,286.631000,340.477000,285.394000,339.953000,284.440000C339.429000,283.485000,338.640000,282.049000,338.200000,281.248000C337.760000,280.447000,336.545000,278.509000,335.500000,276.942000C334.455000,275.375000,333.600000,273.979000,333.600000,273.841000C333.600000,273.703000,332.816000,272.378000,331.857000,270.895000C330.899000,269.413000,328.982000,266.400000,327.598000,264.200000C326.213000,262,324.387000,259.144000,323.540000,257.854000C322.693000,256.564000,322,255.316000,322,255.080000C322,254.844000,321.662000,254.280000,321.249000,253.826000C320.835000,253.372000,318.952000,250.480000,317.064000,247.400000C315.176000,244.320000,313.175000,241.170000,312.617000,240.400000C312.059000,239.630000,311.287000,238.418000,310.901000,237.706000C310.516000,236.994000,309.521000,235.464000,308.691000,234.306000C307.861000,233.148000,306.511000,231.192000,305.691000,229.959000C300.376000,221.973000,298.831000,220.018000,293.331000,214.315000C287.079000,207.831000,281.816000,204.258000,276.970000,203.208000C275.887000,202.973000,274.183000,202.436000,273.184000,202.015000C272.185000,201.594000,270.385000,201.119000,269.184000,200.960000C263.934000,200.264000,255.267000,196.217000,249.342000,191.694000C243.985000,187.606000,235.735000,180.913000,232,177.628000C230.350000,176.176000,227.650000,173.912000,226,172.597000C224.350000,171.282000,221.459000,168.854000,219.576000,167.203000C214.063000,162.368000,211.499000,160.180000,209.385000,158.505000C207.513000,157.023000,203.598000,153.545000,199.637000,149.846000C198.667000,148.941000,197.345000,147.808000,196.699000,147.329000C194.610000,145.781000,189.785000,141.475000,181.992000,134.206000C180.338000,132.663000,177.619000,130.140000,175.950000,128.600000C162.502000,116.193000,156.765000,110.704000,146.629000,100.547000C140.233000,94.137000,132.900000,86.577000,130.333000,83.747000C127.766000,80.916000,123.379000,76.080000,120.583000,73C117.788000,69.920000,113.948000,65.520000,112.050000,63.222000C110.153000,60.924000,107.520000,57.774000,106.200000,56.222000C104.880000,54.670000,102.990000,52.320000,102.001000,51C101.012000,49.680000,100.109000,48.510000,99.995000,48.400000C99.783000,48.195000,97.027000,44.492000,93.146000,39.200000C88.985000,33.526000,83.147000,24.341000,81.787000,21.327000C81.471000,20.627000,81.055000,19.957000,80.862000,19.839000C80.457000,19.588000,77.840000,14.276000,77.395000,12.800000C76.047000,8.328000,72.291000,3.783000,67.974000,1.400000C65.844000,0.224000,56.168000,-0.517000,53,0.253000M53.133000,30.565000C53.896000,30.960000,55.238000,32.923000,57.577000,37.065000C67.288000,54.264000,85.144000,77.638000,103.970000,97.792000C118.780000,113.648000,129.523000,124.565000,141.400000,135.832000C153.056000,146.889000,160.845000,154.167000,163.252000,156.251000C164.490000,157.323000,168,160.467000,171.052000,163.238000C174.103000,166.008000,179.120000,170.464000,182.200000,173.140000C189.087000,179.122000,190,180.532000,190,185.182000C190,201.521000,175.823000,213.676000,157.401000,213.134000C151.849000,212.970000,152.829000,213.608000,140.907000,202.400000C136.110000,197.890000,131.198000,193.316000,129.993000,192.236000C94.915000,160.820000,53.045000,113.046000,38.286000,87.600000C26.716000,67.651000,25.226000,51.148000,33.992000,40.058000C38.355000,34.539000,49.820000,28.852000,53.133000,30.565000M263.680000,229.243000C272.087000,231,276.989000,237.290000,304.332000,281.400000C327.290000,318.436000,327.752000,319.347000,329.997000,332C336.602000,369.234000,327.279000,396.085000,304.723000,404.796000C273.479000,416.861000,241.892000,399.718000,225.024000,361.539000C208.419000,323.957000,205.117000,320.942000,190.810000,330.307000C188.211000,332.008000,181.979000,335.920000,176.962000,339C155.332000,352.278000,154.582000,353.272000,157.450000,364.854000C159.776000,374.246000,159.527000,376.966000,156.050000,380.107000C149.292000,386.213000,132.586000,375.201000,127.972000,361.600000C125.525000,354.385000,126.826000,346.011000,132.604000,331.800000C136.480000,322.266000,137.342000,319.141000,137.373000,314.515000C137.433000,305.444000,133.987000,307.971000,126.888000,322.200000C114.398000,347.239000,111.075000,364.692000,116.627000,376.098000C119.743000,382.501000,118.378000,382.399000,103.200000,375.101000C96.401000,371.832000,95.453000,371.072000,94.828000,368.400000C93.328000,361.981000,92.949000,321.633000,94.293000,311.400000C94.784000,307.660000,95.460000,301.540000,95.795000,297.800000C97.349000,280.451000,99.931000,265.602000,101.730000,263.663000C103.126000,262.160000,109.501000,259.531000,117.400000,257.201000C127.668000,254.172000,129.850000,253.557000,136.400000,251.851000C140.250000,250.847000,144.426000,249.673000,145.681000,249.241000C148.420000,248.299000,158.701000,246.264000,177.200000,243.004000C180.390000,242.442000,185.970000,241.450000,189.600000,240.800000C199.532000,239.020000,206.743000,237.746000,213.400000,236.596000C216.700000,236.025000,221.920000,235.106000,225,234.554000C228.080000,234.001000,234.380000,232.925000,239,232.163000C243.620000,231.401000,249.650000,230.354000,252.400000,229.837000C258.150000,228.754000,260.700000,228.620000,263.680000,229.243000M228.029000,259.801000C222.383000,262.585000,218.508000,264.013000,211.200000,266.001000C195.716000,270.213000,157.365000,283.173000,154.956000,285.008000C150.654000,288.284000,152.219000,295.201000,157.262000,295.200000C159.139000,295.199000,162.718000,293.406000,168.280000,289.680000C176.653000,284.071000,185.725000,280.382000,196.400000,278.246000C221.672000,273.189000,231.402000,274.001000,243.800000,282.202000C250.342000,286.530000,253.038000,287.362000,254.800000,285.600000C256.650000,283.750000,255.388000,280.458000,249.325000,271.318000C239.264000,256.151000,237.434000,255.162000,228.029000,259.801000M49.400000,296.751000C57.179000,300.319000,60.678000,305.213000,61.599000,313.814000C61.834000,316.006000,62.288000,320.230000,62.608000,323.200000C64,336.139000,64.644000,357.103000,63.678000,358.075000C62.863000,358.895000,61.970000,357.382000,60.008000,351.858000C56.646000,342.391000,54.208000,336.857000,48.003000,324.600000C38.448000,305.727000,37.983000,303.178000,43.160000,298.002000C45.434000,295.728000,46.641000,295.486000,49.400000,296.751000M174.123000,434.792000C176.146000,435.007000,179.690000,435.371000,182,435.601000C198.301000,437.218000,223.013000,446.412000,231.160000,453.889000C234.484000,456.940000,232.477000,457.049000,221.477000,454.416000C199.669000,449.197000,175.465000,445.971000,152.926000,445.279000C142.512000,444.959000,142.693000,445.011000,140.100000,441.632000C136.989000,437.578000,139.295000,436.573000,155.600000,434.874000C160.416000,434.372000,169.795000,434.331000,174.123000,434.792000" transform="translate(-199.910668,-248.647856)" fill="rgb(255,42,109)" stroke="none" stroke-width="1"/></g></g></svg>